PathFileType	4	(X/Y/Z)	C:\Users\86182\Documents\cortex\Trimmed_M3_L14.trc
DataRate	CameraRate	NumFrames	NumMarkers	Units	OrigDataRate	OrigDataStartFrame	OrigNumFrames
100.00	100.00	       99	2	mm	100.00	181	       901
Frame#	Time	gripper			box			
		X1	Y1	Z1	X2	Y2	Z2	

181	1.800	274.23810	148.84621	221.71664	276.75580	146.85667	85.99585	
182	1.810	273.88535	148.81590	222.21646	276.75229	146.95486	86.28076	
183	1.820	274.21262	148.86929	222.80188	276.94366	146.92058	86.91206	
184	1.830	274.80316	148.70973	223.05084	276.83203	147.03827	87.46326	
185	1.840	274.31409	148.77307	223.55818	276.86829	146.90118	87.95790	
186	1.850	274.63565	148.71663	224.03021	276.92368	146.91016	88.21301	
187	1.860	274.46344	148.87866	224.53799	276.97162	147.11349	88.57310	
188	1.870	274.33945	148.92184	224.99165	276.99542	147.07658	89.00966	
189	1.880	274.05389	148.87704	225.31715	276.89670	147.02148	89.69711	
190	1.890	274.42435	148.86987	225.75023	276.88120	147.04604	90.10687	
191	1.900	274.29251	148.98743	226.12727	276.94675	146.92110	90.38448	
192	1.910	274.19070	148.98483	226.61211	277.00793	146.95979	90.58686	
193	1.920	274.33325	148.80734	226.97690	276.91235	147.07042	91.08788	
194	1.930	274.27435	148.99992	227.45911	276.75180	147.01717	91.47502	
195	1.940	274.38284	148.92653	227.69411	276.81302	146.99887	92.13863	
196	1.950	274.21848	149.01155	228.28481	276.91235	147.05498	92.52207	
197	1.960	274.13043	149.02669	228.64795	277.06427	146.91640	92.85957	
198	1.970	274.06461	149.06235	229.15797	276.85330	146.98853	93.22131	
199	1.980	274.19336	149.08762	229.59946	276.76599	147.03052	93.62871	
200	1.990	274.04184	149.07184	229.93260	276.76260	147.08606	94.21314	
201	2.000	274.13913	149.16963	230.52008	276.88214	147.11292	94.78244	
202	2.010	273.96078	149.12953	230.94807	276.79578	147.08427	95.05492	
203	2.020	274.16992	149.14053	231.27176	276.82706	147.06540	95.46349	
204	2.030	274.10071	149.18524	231.82660	276.71219	147.07857	95.98110	
205	2.040	274.02859	149.11360	232.17812	276.64557	147.12141	96.36828	
206	2.050	273.96194	149.16679	232.63681	276.67776	147.15251	96.67562	
207	2.060	274.00836	149.17615	232.98894	276.68750	147.28046	97.17708	
208	2.070	274.16187	149.21301	233.39568	276.53766	147.24953	97.58463	
209	2.080	273.92493	149.18048	233.84811	276.46667	147.17097	98.11951	
210	2.090	273.96030	149.20926	234.16394	276.43427	147.25789	98.44875	
211	2.100	273.85251	149.31259	234.61441	276.42743	147.28543	98.66320	
212	2.110	273.86813	149.32730	235.14267	276.48407	147.31454	99.04432	
213	2.120	273.84390	149.30836	235.46504	276.55899	147.21588	99.86639	
214	2.130	273.95325	149.24828	235.79610	276.35757	147.39647	100.24995	
215	2.140	273.97534	149.23131	236.33188	276.45847	147.24594	100.46954	
216	2.150	273.90561	149.34654	236.88127	276.71844	147.30304	100.73596	
217	2.160	274.10501	149.32666	237.20854	276.58255	147.27380	101.30419	
218	2.170	274.06412	149.29448	237.63959	276.66071	147.35762	101.85252	
219	2.180	274.17029	149.29694	238.15956	276.35043	147.50594	102.41732	
220	2.190	273.93329	149.45332	238.70145	276.63974	147.37204	102.78680	
221	2.200	274.21060	149.46036	239.06412	276.87485	147.38933	103.24587	
222	2.210	274.12146	149.36327	239.63225	276.74515	147.40791	103.47961	
223	2.220	274.15216	149.35286	239.98933	276.55774	147.59302	104.25917	
224	2.230	274.05634	149.39581	240.34683	276.51831	147.55576	104.83746	
225	2.240	274.16690	149.47295	240.82237	276.69421	147.54613	104.98701	
226	2.250	273.85773	149.52797	241.35416	276.54169	147.61507	105.30399	
227	2.260	273.97147	149.54953	241.62225	276.35165	147.56247	105.79096	
228	2.270	273.99918	149.47028	241.95233	276.39392	147.60735	106.22092	
229	2.280	274.02362	149.45164	242.41113	276.29636	147.62146	106.87077	
230	2.290	273.97324	149.46066	242.91345	276.37604	147.67844	107.14821	
231	2.300	273.94186	149.55576	243.33325	276.38055	147.64484	107.34538	
232	2.310	273.89819	149.59497	243.70862	276.31573	147.66400	107.90595	
233	2.320	273.91467	149.58699	244.14589	276.46304	147.77437	108.18747	
234	2.330	273.96927	149.40594	244.49380	276.16867	147.68800	108.69240	
235	2.340	273.93179	149.49115	244.92131	276.40152	147.68042	109.17731	
236	2.350	274.18140	149.53914	245.56853	276.45694	147.63052	109.73170	
237	2.360	274.05038	149.50699	245.95273	276.44455	147.73553	110.08020	
238	2.370	273.87619	149.54283	246.24577	276.23370	147.67804	110.60435	
239	2.380	274.18185	149.49249	246.63634	276.33511	147.70731	110.83781	
240	2.390	274.23605	149.42691	247.26808	276.49521	147.63834	111.49538	
241	2.400	274.09604	149.44667	247.71086	276.84952	147.57312	111.81983	
242	2.410	273.88156	149.43457	248.05215	276.46652	147.69958	112.21513	
243	2.420	273.94858	149.42343	248.48248	276.22000	147.64716	112.75893	
244	2.430	273.76370	149.41620	248.94658	276.45212	147.69014	113.10612	
245	2.440	273.94312	149.29977	249.20369	276.39084	147.66682	113.38812	
246	2.450	273.87219	149.26323	249.74332	276.52454	147.78506	113.87146	
247	2.460	273.80322	149.39014	250.32358	276.36899	147.71384	114.29704	
248	2.470	273.72855	149.42746	250.60307	276.11850	147.62880	114.95230	
249	2.480	273.67627	149.36441	250.82661	276.21960	147.70178	115.20055	
250	2.490	273.46597	149.25172	251.27835	276.26529	147.86400	115.50066	
251	2.500	273.85446	149.27892	251.89313	275.98117	147.57248	115.85258	
252	2.510	273.83017	149.33615	252.27362	276.01736	147.60759	116.44495	
253	2.520	273.49081	149.29552	252.70203	275.91647	147.58498	116.93002	
254	2.530	273.53226	149.19608	253.01627	275.83878	147.55882	117.34663	
255	2.540	273.71970	149.31633	253.42529	275.92188	147.75908	117.67599	
256	2.550	273.59134	149.33243	253.85973	275.93091	147.64807	118.11296	
257	2.560	273.51941	149.31227	254.50902	275.96912	147.59508	118.43815	
258	2.570	273.75647	149.29164	254.89099	275.89816	147.50206	119.11327	
259	2.580	273.71185	149.26787	255.25938	276.07639	147.70406	119.50566	
260	2.590	273.59940	149.31755	255.67908	276.14056	147.78944	119.90371	
261	2.600	273.37814	149.41124	256.10281	275.97064	147.72987	120.24916	
262	2.610	273.81021	149.36682	256.69815	275.77289	147.55341	120.77933	
263	2.620	273.82907	149.27658	257.07385	275.96317	147.69759	121.18670	
264	2.630	273.77142	149.26376	257.38229	275.89145	147.75279	121.63827	
265	2.640	273.66177	149.45685	257.83118	276.05716	147.77505	122.09763	
266	2.650	273.48416	149.42116	258.25266	276.11172	147.69548	122.35902	
267	2.660	273.63589	149.41943	258.70370	275.67502	147.81532	122.82333	
268	2.670	273.74686	149.40578	259.09277	275.76047	147.66855	123.20837	
269	2.680	273.69022	149.30385	259.55582	275.88159	147.66635	123.72222	
270	2.690	273.50177	149.36734	259.95435	275.67157	147.73793	124.09319	
271	2.700	273.64340	149.43248	260.24966	275.68839	147.69319	124.61211	
272	2.710	273.60419	149.53554	260.75412	275.56628	147.69669	125.10726	
273	2.720	273.59952	149.44159	261.25366	275.57474	147.66879	125.45278	
274	2.730	273.62881	149.42633	261.57040	275.75027	147.58101	125.70235	
275	2.740	273.77954	149.42960	262.05276	275.67905	147.67943	126.29666	
276	2.750	273.72403	149.44177	262.53333	275.78418	147.78775	126.82112	
277	2.760	273.76257	149.46941	262.84952	275.67944	147.68359	127.37341	
278	2.770	273.83447	149.49089	263.37424	275.55893	147.63315	127.55771	
279	2.780	273.74698	149.41716	263.88443	275.88135	147.69464	127.82677	
